PathFileType	4	(X/Y/Z)	C:\Users\Basilio\Documents\Thesis Gigler\squatting_fais\c3dfiles\075\SLS_back_pre3\markers_experimental.trc
DataRate	CameraRate	NumFrames	NumMarkers	Units	OrigDataRate	OrigDataStartFrame	OrigNumFrames
200.000000	200.000000	4	61	mm	200.000000	835	1336
Frame#	Time	FHD			LBHD			C7			T10			CLAV			LSHO			LUUPA			LMUPA			LDUPA			LLEP			LMEP			LRAD			LUL			LRFIN			RSHO			RUPA1			RMUPA			RDUPA			RLEP			RMEP			RRAD			RUL			RUFIN			LASI			RASI			USACR			LSACR			RSACR			LTHI1			LTHI2			LTHI3			LTHI4			LLFC			LMFC			LTIB1			LTIB2			LTIB3			LTIB4			LLMAL			LMMAL			LHEE			LMT1			LMT2			LMT5			RTHI			RTHI2			RTHI3			RTHI4			RLFC			RMFC			RTIB1			RTIB2			RTIB3			RTIB4			RLMAL			RMMAL			RHEE			RMT1			RMT2			RMT5			RBHD			
		X1	Y1	Z1	X2	Y2	Z2	X3	Y3	Z3	X4	Y4	Z4	X5	Y5	Z5	X6	Y6	Z6	X7	Y7	Z7	X8	Y8	Z8	X9	Y9	Z9	X10	Y10	Z10	X11	Y11	Z11	X12	Y12	Z12	X13	Y13	Z13	X14	Y14	Z14	X15	Y15	Z15	X16	Y16	Z16	X17	Y17	Z17	X18	Y18	Z18	X19	Y19	Z19	X20	Y20	Z20	X21	Y21	Z21	X22	Y22	Z22	X23	Y23	Z23	X24	Y24	Z24	X25	Y25	Z25	X26	Y26	Z26	X27	Y27	Z27	X28	Y28	Z28	X29	Y29	Z29	X30	Y30	Z30	X31	Y31	Z31	X32	Y32	Z32	X33	Y33	Z33	X34	Y34	Z34	X35	Y35	Z35	X36	Y36	Z36	X37	Y37	Z37	X38	Y38	Z38	X39	Y39	Z39	X40	Y40	Z40	X41	Y41	Z41	X42	Y42	Z42	X43	Y43	Z43	X44	Y44	Z44	X45	Y45	Z45	X46	Y46	Z46	X47	Y47	Z47	X48	Y48	Z48	X49	Y49	Z49	X50	Y50	Z50	X51	Y51	Z51	X52	Y52	Z52	X53	Y53	Z53	X54	Y54	Z54	X55	Y55	Z55	X56	Y56	Z56	X57	Y57	Z57	X58	Y58	Z58	X59	Y59	Z59	X60	Y60	Z60	X61	Y61	Z61	

836	4.175	-150.9106597900391	1586.172729492188	-811.9575195312502	-307.0577087402344	1481.885009765625	-882.4029541015627	-352.7529296875001	1387.574951171875	-813.843200683594	-477.1314392089845	1094.602416992188	-789.4403076171877	-232.3909606933594	1294.711059570313	-807.5413818359377	-249.8499450683594	1354.993041992188	-936.8725585937502	-105.5847625732422	1272.380126953125	-1035.074340820313	-77.84503173828126	1295.530517578125	-1001.378173828125	-37.36736297607423	1263.025146484375	-1032.870727539063	45.29397201538087	1251.5458984375	-1019.758911132813	27.47843933105469	1183.98291015625	-968.945007324219	nan	nan	nan	269.4901123046876	1299.168701171875	-894.2490234375002	260.4642028808594	1339.73681640625	-794.2492675781252	-257.6823120117188	1357.152587890625	-679.2167968750001	-136.5023498535157	1295.764282226563	-546.9995117187501	-99.41859436035159	1310.258911132813	-574.6909790039064	-69.5995559692383	1284.935791015625	-527.9368286132814	2.141465902328492	1279.912841796875	-522.7415771484376	12.34289646148682	1203.3388671875	-546.0847167968751	191.1984252929688	1311.395141601563	-725.2225952148439	221.6382293701172	1322.301025390625	-656.4865112304689	259.2065734863282	1358.077758789063	-759.0615234375001	-383.3937072753907	891.7189941406252	-921.0718994140627	-368.6300354003907	889.2485351562502	-670.5410766601564	-512.4961547851564	992.0767822265627	-790.4230957031252	-527.4235839843751	964.1960449218752	-817.769714355469	-526.3781127929689	964.043884277344	-760.3136596679689	-380.0338134765626	688.4254150390626	-1010.967041015625	-322.5966186523438	627.1889648437501	-1018.199951171875	-283.8670043945313	641.2722778320314	-989.1114501953127	-330.9754943847657	566.6044311523439	-1023.446166992188	-322.7631530761719	478.3017883300782	-1017.369018554688	-303.8477478027344	444.4081115722657	-887.1007080078127	-382.2609863281251	368.3902893066407	-974.6226806640627	-446.8358459472657	408.7754516601564	-1017.835144042969	-435.4707031250001	369.3055725097657	-1001.886291503906	-507.696258544922	343.5183105468751	-965.8758544921877	-665.6007690429689	364.5768432617188	-977.235290527344	-636.6547851562501	346.4411926269532	-895.0173339843752	-692.7097167968751	420.6553344726564	-935.4912109375002	-703.5888061523439	221.3006439208985	-875.5501098632815	-710.5819702148439	208.6719970703126	-922.592468261719	-743.8537597656251	240.3837280273438	-970.4246826171877	-392.4430541992189	707.8139648437501	-616.3484497070314	-332.6376037597657	680.1857299804689	-623.6278686523439	-307.9217224121094	700.8928833007814	-633.2705078125001	-317.8865661621094	597.8778076171876	-637.7875976562501	-267.5543823242188	464.874237060547	-686.4815673828126	-243.2546386718751	480.5465393066407	-808.0239257812502	-241.5740356445313	330.0591735839844	-774.7380371093752	-301.8714599609376	257.1342773437501	-721.5061645507814	-270.8993530273438	249.4916076660157	-758.8115844726564	-297.3462524414063	215.9969787597657	-798.8377685546877	-388.4108886718751	111.0046615600586	-766.5574340820314	-363.4023742675782	139.8046264648438	-848.1689453125002	-448.6155090332032	97.00978851318362	-824.503845214844	-247.6413116455079	55.02983474731447	-838.7926025390627	-245.5372619628907	56.87772750854494	-795.6362304687502	-282.6752624511719	36.96442794799805	-742.7384643554689	-267.6799011230469	1518.522094726563	-729.7850952148439	
837	4.18	-152.0846405029297	1588.811401367188	-811.8499755859377	-307.9365844726563	1484.078125	-881.884460449219	-353.1588134765626	1389.605834960938	-813.5764770507815	-476.9919738769532	1096.180419921875	-789.509460449219	-232.6928405761719	1297.106811523438	-807.3166503906252	-250.1971893310547	1357.48828125	-936.7009887695315	-106.9565048217774	1275.5830078125	-1035.151000976563	-78.16345214843751	1298.389038085938	-1001.261596679688	-37.91323852539063	1266.176513671875	-1032.77587890625	45.1042709350586	1254.66748046875	-1019.472534179688	27.46100425720216	1186.967041015625	-968.463317871094	nan	nan	nan	269.1907043457032	1302.649291992188	-893.858337402344	259.9494018554688	1343.168579101563	-793.8836669921877	-258.0590515136719	1359.478149414063	-678.8648681640626	-137.0003509521485	1298.4326171875	-546.5961914062501	-99.99273681640628	1312.80859375	-574.4149169921876	-69.97435760498048	1287.606811523438	-527.6111450195314	1.725842714309693	1282.734985351563	-522.5834350585939	12.03959178924561	1206.08740234375	-545.9108276367189	190.5373229980469	1314.724731445313	-724.9663085937501	221.2149353027344	1325.643676757813	-656.1380615234376	258.7651672363282	1361.50927734375	-758.7727661132814	-382.6580200195313	893.693298339844	-921.259948730469	-367.9523925781251	891.0294189453127	-670.7378540039064	-511.4898681640626	993.5066528320315	-790.5648193359377	-526.6894531250001	965.9682617187502	-818.0332031250002	-526.3098754882814	965.7974853515627	-760.3850708007814	-379.8382873535157	690.4432983398439	-1011.602966308594	-320.8755187988282	628.7571411132814	-1018.230895996094	-282.7872314453126	643.2334594726564	-989.3283691406252	-329.8450622558594	568.6058959960939	-1023.719482421875	-321.6046142578126	480.2882690429689	-1017.586791992188	-302.6485290527344	446.5955505371095	-887.3730468750002	-380.9231262207032	370.2159118652344	-974.7487792968752	-445.631805419922	410.4841613769532	-1018.093566894531	-433.606903076172	370.4239501953126	-1002.06982421875	-506.4737854003907	345.2031250000001	-966.013610839844	-664.2942504882814	365.9357299804688	-977.4915161132815	-635.2868041992189	347.8287353515626	-895.1697998046877	-691.4616699218751	422.1972656250001	-935.650085449219	-702.2462768554689	222.8045501708985	-875.6104125976565	-709.8347778320314	210.0724792480469	-923.1933593750002	-742.3789672851564	241.7561950683594	-970.5947265625002	-392.2378234863282	709.0151367187501	-616.4497070312501	-332.6312255859376	680.9714965820314	-623.6674804687501	-307.7836303710938	701.6178588867189	-633.2604370117189	-318.3074035644532	598.7594604492189	-638.0090942382814	-268.5241699218751	465.4229431152345	-686.4508666992189	-243.3190460205079	480.9396972656251	-808.4038085937502	-242.279769897461	330.5196533203126	-774.6320800781252	-302.4234008789063	257.3023986816407	-721.5460205078126	-271.1717224121094	249.7118682861329	-758.7396850585939	-297.6400451660157	216.2318420410157	-798.729431152344	-388.4822387695314	110.9693145751953	-766.5990600585939	-364.4503479003907	140.0894775390625	-848.4283447265627	-448.5769348144532	96.9800720214844	-824.5167236328127	-247.6817016601563	54.97880172729494	-838.8049926757815	-245.5653076171876	56.87923431396486	-795.6323242187502	-282.6610107421876	36.96640777587891	-742.7235717773439	-268.3213195800782	1520.95361328125	-729.4328002929689	
838	4.185	-153.0752105712891	1591.244140625	-811.635437011719	-308.4356689453126	1486.270751953125	-881.6358032226565	-353.7490539550782	1391.630126953125	-813.3892822265627	-476.7427978515626	1097.899780273438	-789.5786132812502	-232.8622283935547	1299.54150390625	-807.0731201171877	-250.7916259765626	1359.926025390625	-936.522155761719	-106.0459899902344	1277.884521484375	-1034.874877929688	-78.42784118652345	1301.187622070313	-1001.017333984375	-38.01107406616212	1269.015991210938	-1032.800170898438	45.54781723022462	1258.031372070313	-1019.777709960938	27.30907058715821	1190.101928710938	-968.579528808594	nan	nan	nan	268.6962585449219	1306.201293945313	-893.5364379882815	259.4994812011719	1346.638305664063	-793.5866699218752	-258.6277160644532	1361.60986328125	-678.5435180664064	-137.4386901855469	1300.835693359375	-546.4423828125001	-100.3919525146485	1315.362915039063	-574.1212158203126	-70.3732147216797	1290.265380859375	-527.3665771484376	1.257477283477783	1285.349487304688	-522.2866821289064	11.95082187652588	1208.994995117188	-545.6084594726564	190.118896484375	1317.855346679688	-724.6833496093751	220.7825164794922	1329.006103515625	-655.8165893554689	258.1418151855469	1364.77001953125	-758.4291992187501	-381.8774108886719	895.5545654296877	-921.3557128906252	-367.2265319824219	892.674499511719	-670.8838500976564	-511.1871032714845	995.4473876953127	-790.5965576171877	-526.0441284179689	967.5288085937502	-818.090270996094	-525.0197143554689	967.369323730469	-760.6241455078126	-378.0782775878907	692.1696777343751	-1011.547485351563	-320.0077209472657	630.7813720703126	-1018.468566894531	-281.6534423828126	645.0632934570314	-989.401794433594	-328.0699768066407	570.4039306640626	-1023.77392578125	-320.0266113281251	482.0540771484376	-1017.953491210938	-301.5347900390626	448.3200683593751	-887.5618896484377	-379.9256896972657	372.1561889648438	-975.4007568359377	-444.3913879394532	412.3192443847657	-1018.367736816406	-432.410858154297	372.1343383789063	-1002.238037109375	-504.9670715332032	346.8238525390626	-965.7362060546877	-662.9307861328126	367.4160156250001	-977.654479980469	-633.8085327148439	349.3374938964844	-895.3974609375002	-690.0006103515626	423.3663635253907	-935.606140136719	-699.1827392578126	223.6171569824219	-877.0139160156252	-708.1621093750001	211.5384521484376	-922.788024902344	-741.0307617187501	243.1919708251954	-970.7808227539065	-391.9939575195314	710.2940673828126	-616.7494506835939	-332.5494079589844	682.0271606445314	-623.8473510742189	-307.5355224609376	702.4414672851564	-633.5468750000001	-318.7266845703126	599.4492797851564	-638.2931518554689	-269.5493774414063	465.9546813964845	-686.5925903320314	-244.7831726074219	482.1973571777345	-808.7977294921877	-243.024398803711	330.9476318359376	-774.6367797851565	-302.9583129882813	257.5846862792969	-721.5327758789064	-271.5040893554688	249.8134918212891	-758.7547607421876	-297.8406372070313	216.3372192382813	-798.6560668945315	-388.5280761718751	110.9823074340821	-766.6132202148439	-364.4561767578126	140.1185607910157	-848.4104003906252	-448.6124267578126	96.99539947509768	-824.545837402344	-247.7134399414063	54.93485260009767	-838.8323364257815	-245.5420379638672	56.89005661010744	-795.6257934570315	-282.6705627441407	36.94893264770509	-742.7299804687501	-269.2666625976563	1523.097534179688	-729.3408203125001	
839	4.19	-153.716064453125	1593.635131835938	-811.1668090820315	-309.0469055175782	1488.127563476563	-881.3186035156252	-354.4312744140626	1393.665161132813	-813.1729736328127	-476.5278930664064	1099.488647460938	-789.5669555664065	-233.1302337646485	1301.944458007813	-806.8428955078127	-251.1499328613282	1362.29443359375	-936.2493896484377	-107.3018417358399	1280.986450195313	-1034.862426757813	-78.74505615234376	1303.925415039063	-1000.92431640625	-37.9559555053711	1271.8916015625	-1032.681274414063	45.39860916137696	1261.182739257813	-1019.868103027344	27.19135093688966	1193.020874023438	-968.4321289062502	nan	nan	nan	268.3139038085938	1309.69091796875	-893.3580322265627	258.4245605468751	1349.87158203125	-792.8121337890627	-259.1786193847657	1363.838134765625	-678.3052978515626	-137.8226776123047	1303.370971679688	-546.0744628906251	-100.903305053711	1317.90869140625	-573.9093017578126	-70.77939605712892	1292.84033203125	-526.9465942382814	0.9152932763099673	1288.122436523438	-521.8582153320314	11.75711250305176	1211.734252929688	-545.3288574218751	189.8602447509766	1320.938110351563	-724.1051635742189	220.2896881103516	1332.363525390625	-655.5720214843751	257.4123840332032	1368.319213867188	-757.8193969726564	-380.1996154785157	897.412292480469	-921.1240844726565	-366.4976196289063	894.4572753906252	-670.7512817382814	-510.6329345703126	996.9874267578127	-790.626403808594	-525.3005371093751	969.364685058594	-818.2940673828127	-524.2983398437501	968.8981933593752	-760.6706542968751	-377.0738220214844	693.9768676757814	-1011.837646484375	-318.8510437011719	632.5583496093751	-1018.733825683594	-280.7396240234376	647.0516967773439	-989.8421630859377	-327.0646667480469	572.3298950195314	-1024.106201171875	-319.1821594238282	484.2151794433595	-1018.175354003906	-300.0585021972657	450.3410644531251	-887.841247558594	-378.6747436523438	374.1272277832032	-975.6571044921877	-442.974578857422	414.026336669922	-1018.571960449219	-431.0177307128907	373.9136047363282	-1002.391906738281	-503.5528259277345	348.4805603027344	-966.0347900390627	-661.5206909179689	368.8015136718751	-977.6882324218752	-632.5343627929689	350.9268493652344	-895.5206298828127	-688.9136962890626	424.7847900390626	-935.9077148437502	-698.9477539062501	225.092025756836	-876.2034301757815	-705.9476318359376	212.8007202148438	-923.0510864257815	-738.9899902343751	244.2468872070313	-970.9593505859377	-391.7027587890626	711.6865234375001	-616.9054565429689	-332.4678344726563	683.0433349609376	-624.0345458984376	-307.3758239746094	703.3680419921876	-633.8207397460939	-319.0907592773438	600.3519897460939	-638.4349365234376	-270.4839782714844	466.5310363769532	-686.7089843750001	-244.1873626708985	481.2311401367189	-808.8723144531252	-243.6478424072266	331.3875427246094	-774.572204589844	-303.4719543457032	257.8944091796876	-721.6175537109376	-272.4961853027344	250.3198242187501	-758.9820556640626	-298.0653076171876	216.488998413086	-798.5549316406252	-388.5410766601564	110.9757614135742	-766.6620483398439	-364.5891113281251	140.1352081298828	-848.3843994140627	-448.6177368164064	97.0080490112305	-824.536804199219	-247.2139587402344	54.8288040161133	-838.5516357421877	-245.5477142333985	56.88663482666017	-795.617370605469	-282.6655578613282	36.98362731933594	-742.7362670898439	-270.0859680175782	1525.27685546875	-728.9719848632814	
